<?xml version="1.0"?>
<svg xmlns="http://www.w3.org/2000/svg" id="Capa_1" enable-background="new 0 0 510.418 510.418" height="512px" viewBox="0 0 510.418 510.418" width="512px"><g><g><path d="m118.418 130.209v27.703c81.71 29.411 133.911 109.083 121.068 208.643l-.421 3.655h161.403c21.36-19.818 33.75-46.355 34.859-74.809l75.09-30.036v-135.156c-10.995 0-381.449 0-391.999 0zm362 114.845-45 18v-102.845h45z" data-original="#000000" class="active-path" data-old_color="#000000" fill="#FFFFFF"/><path d="m174.502 370.209-80.724-80.644 21.197-21.229 94.727 94.625.005-.045c15.125-116.358-72.004-201.511-194.207-185.656l-11.639 1.51-2.159 18.867c-10.394 79.996 27.676 144.82 90.782 172.572z" data-original="#000000" class="active-path" data-old_color="#000000" fill="#FFFFFF"/><path d="m163.418 470.209h227c50.534 0 96.002-20.116 103.857-70h-434.715c7.86 49.907 53.359 70 103.858 70z" data-original="#000000" class="active-path" data-old_color="#000000" fill="#FFFFFF"/><path d="m118.418 40.209h317v60h-317z" data-original="#000000" class="active-path" data-old_color="#000000" fill="#FFFFFF"/></g></g> </svg>
