<?xml version="1.0"?>
<svg xmlns="http://www.w3.org/2000/svg" id="Capa_1" enable-background="new 0 0 512.175 512.175" height="512px" viewBox="0 0 512.175 512.175" width="512px" class=""><g><g><path d="m304.688 46.202v40.761c0 4.143 3.357 7.5 7.5 7.5s7.5-3.357 7.5-7.5v-40.761c0-4.143-3.357-7.5-7.5-7.5s-7.5 3.358-7.5 7.5z" data-original="#000000" class="active-path" data-old_color="#000000" fill="#FFFFFF"/><path d="m346.661 94.463c4.143 0 7.5-3.357 7.5-7.5v-40.761c0-4.143-3.357-7.5-7.5-7.5s-7.5 3.357-7.5 7.5v40.761c0 4.142 3.358 7.5 7.5 7.5z" data-original="#000000" class="active-path" data-old_color="#000000" fill="#FFFFFF"/><path d="m388.635 86.963v-40.761c0-4.143-3.357-7.5-7.5-7.5s-7.5 3.357-7.5 7.5v40.761c0 4.143 3.357 7.5 7.5 7.5s7.5-3.358 7.5-7.5z" data-original="#000000" class="active-path" data-old_color="#000000" fill="#FFFFFF"/><path d="m483.542 232.117-.011-.428c-.094-4.083-3.433-7.328-7.495-7.328-.058 0-.116.001-.175.002-4.142.095-7.421 3.529-7.326 7.67l.013.487c.009.333.019.665.019.999v206.115c0 31.631-25.734 57.365-57.365 57.365-133.812-.652-131.245 1.506-144.158-2.006 2.504-5.894 2.102-9.985 2.758-14.843 10.581 3.209 13.646 1.292 76.872 1.849 4.143 0 7.5-3.357 7.5-7.5s-3.357-7.5-7.5-7.5c-64.327-.732-66.404 1.749-75.672-2.368.114-16.14-5.023-31.476-14.049-44.051 17.063-4.615 31.977-15.126 42.124-30.031l11.281-16.569c3.46-5.083 5.171-11.262 4.818-17.396-.608-10.629-7.05-19.872-16.81-24.122l-14.129-6.153c-9.483-4.13-19.493-6.201-29.483-6.252v-32.78c0-.439.446-.719.857-.542 5.745 2.526 10.976 8.456 24.775 8.456 18.269 0 20.202-10 33.134-10 13.332 0 14.485 10 33.135 10 18.268 0 20.204-10 33.134-10 13.333 0 14.487 10 33.138 10 13.821 0 19.056-5.94 24.78-8.456.404-.179.858.099.858.542v152.356c0 15.089-12.276 27.365-27.365 27.365h-34.54c-4.143 0-7.5 3.357-7.5 7.5s3.357 7.5 7.5 7.5h34.54c23.36 0 42.365-19.005 42.365-42.365v-152.355c0-5.283-2.642-10.163-7.065-13.053-4.431-2.895-9.972-3.354-14.823-1.224-7.595 3.334-9.491 7.19-18.75 7.19-13.332 0-14.488-10-33.138-10-18.269 0-20.202 10-33.134 10-13.332 0-14.485-10-33.135-10-18.268 0-20.204 10-33.134 10-9.258 0-11.11-3.835-18.743-7.189-4.848-2.127-10.389-1.672-14.823 1.223-4.425 2.89-7.066 7.769-7.066 13.053v34.242c-2.662.537-5.302 1.222-7.909 2.054.767-12.428-1.54-25.076-7.09-36.708v-53.346c0-27.971 17.995-52.185 44.777-60.252 12.931-3.895 21.618-15.585 21.618-29.09v-18.231h22.752l-7.38 3.818c-3.679 1.903-5.118 6.429-3.215 10.107 1.903 3.68 6.43 5.117 10.107 3.215l16.803-8.693-9.832 24.433c-1.546 3.843.315 8.211 4.158 9.758 3.864 1.554 8.22-.336 9.758-4.158l2.918-7.251v24.136c0 14.435 11.744 26.179 26.179 26.179s26.179-11.744 26.179-26.179v-44.186c0-3.997-.904-7.786-2.513-11.179h15.106v18.231c0 13.505 8.688 25.195 21.618 29.09 16.721 5.036 30.714 16.938 38.392 32.651 1.818 3.72 6.305 5.268 10.031 3.445 3.722-1.818 5.264-6.31 3.445-10.031-9.506-19.454-26.834-34.19-47.542-40.429-6.546-1.971-10.944-7.89-10.944-14.727v-18.231h4.952c4.143 0 7.5-3.357 7.5-7.5s-3.357-7.5-7.5-7.5h-4.952v-73.934c.001-20.408-16.603-37.012-37.011-37.012h-24.646c-4.143 0-7.5 3.357-7.5 7.5s3.357 7.5 7.5 7.5h24.646c12.138 0 22.012 9.874 22.012 22.012v73.935c-32.681 0-74.033 0-111.02 0v-73.935c0-12.138 9.874-22.012 22.012-22.012h12.363c4.143 0 7.5-3.357 7.5-7.5s-3.357-7.5-7.5-7.5h-12.363c-20.408 0-37.012 16.604-37.012 37.012v73.935h-4.951c-4.143 0-7.5 3.357-7.5 7.5s3.357 7.5 7.5 7.5h4.951v18.231c0 6.837-4.398 12.756-10.944 14.727-16.152 4.866-30.008 14.594-40.07 28.134s-15.381 29.612-15.381 46.481v31.185l-5.626-7.266c-3.762-4.86-9.109-8.397-15.057-9.961-10.296-2.704-21.078.565-28.137 8.534l-10.217 11.535c-2.107 2.379-4.029 4.866-5.783 7.436-10.759-16.196-24.703-30.281-40.852-41.152-3.434-2.312-8.097-1.402-10.41 2.033-2.313 3.437-1.403 8.098 2.034 10.41 16.85 11.343 31.03 26.577 41.159 44.154-3.257 8.548-4.895 17.58-4.9 26.626-15.03-5.93-31.517-6.817-47.258-2.415-17.036-17.173-29.065-38.567-34.852-62.108l-6.197-25.209c-.269-1.094.701-2.068 1.798-1.801l7.53 1.847c5.952 1.459 11.852 3.345 17.535 5.604 3.85 1.528 8.209-.351 9.74-4.199s-.35-8.21-4.199-9.74c-6.322-2.513-12.884-4.61-19.504-6.233l-7.53-1.847c-5.65-1.388-11.476.245-15.587 4.358-4.112 4.113-5.738 9.942-4.35 15.591l6.197 25.209c5.865 23.863 17.493 45.748 33.849 63.901l-8.528 3.062c-5.786 2.076-10.802 6.069-14.125 11.242-5.754 8.956-5.976 20.22-.578 29.396l7.813 13.282c9.36 15.91 23.89 27.24 40.389 32.84-11.149 13.781-17.068 31.091-16.515 49.163l.613 20.035c.188 6.145 2.434 12.148 6.326 16.907 5.416 6.622 13.352 10.307 21.656 10.307 2.029-.001 4.082-.221 6.124-.672l15.046-3.327c18.375-4.062 33.878-14.711 44.314-29.088 9.613 15.495 24.523 26.909 42.469 32.139l19.244 5.608c7.701 2.244 16.259 1.116 23.304-3.506 21.063 7.921 29.214 3.274 154.51 4.599 39.902 0 72.365-32.463 72.365-72.365v-206.114c0-.469-.011-.936-.024-1.403zm-120.143-106.171c6.164 0 11.179 5.015 11.179 11.179v44.186c0 6.164-5.015 11.179-11.179 11.179s-11.179-5.015-11.179-11.179v-55.364h11.179zm-85.15 214.116 14.129 6.153c4.543 1.979 7.54 6.28 7.824 11.229.164 2.855-.633 5.73-2.243 8.097l-11.28 16.569c-9.625 14.136-24.617 23.328-41.486 25.563-7.927-6.877-17.388-12.168-27.989-15.257l-9.636-2.809c.139-4.62-.78-9.075-2.556-13.104 11.595-9.61 19.568-22.067 23.694-35.578 15.651-7.481 33.537-7.834 49.543-.863zm-103.009 63.927c-8.423-1.071-14.405-8.796-13.333-17.219 1.229-9.66 11.071-15.764 20.255-12.631h.001c6.773 2.312 11.235 9.147 10.298 16.517-1.072 8.423-8.794 14.415-17.221 13.333zm-13.293-126.497 10.217-11.535c3.286-3.708 8.308-5.228 13.096-3.972 2.769.728 5.257 2.374 7.008 4.636l12.272 15.849c19.788 25.554 15.535 61.796-8.731 82.205-8.441-6.564-20.399-8.394-30.791-3.834l-5.584-7.212c-17.547-22.661-16.491-54.682 2.513-76.137zm-95.296 91.898-7.813-13.282c-2.512-4.271-2.409-9.514.27-13.683 1.547-2.407 3.881-4.266 6.574-5.232l18.866-6.774c16.472-5.917 34.343-4.35 49.505 4.219 2.409 10 6.899 19.622 13.522 28.175l5.618 7.254c-4.977 6.379-7.099 14.329-6.218 22.119l-8.691 3.121c-26.974 9.685-57.101-1.214-71.633-25.917zm57.472 118.212-15.046 3.327c-4.838 1.07-9.793-.648-12.93-4.484-1.812-2.215-2.857-5.01-2.944-7.869l-.613-20.036c-.523-17.09 6.199-33.334 18.527-45.057 2.336.222 4.687.337 7.047.337 8.401-.001 16.916-1.424 25.189-4.395l8.969-3.22c4.556 6.461 11.104 10.615 18.307 12.192l.278 9.089c.877 28.646-18.799 53.929-46.784 60.116zm113.462 8.905-19.245-5.608c-17.163-5.002-30.847-17.088-37.964-33.371 3.864-9.442 5.852-19.78 5.524-30.502l-.279-9.112c7.476-2.172 13.882-7.165 17.815-13.886l9.57 2.789c27.516 8.02 45.481 34.545 42.719 63.073l-1.485 15.337c-.804 8.298-8.929 13.529-16.655 11.28z" data-original="#000000" class="active-path" data-old_color="#000000" fill="#FFFFFF"/></g></g> </svg>
