<?xml version="1.0"?>
<svg xmlns="http://www.w3.org/2000/svg" id="Capa_1" enable-background="new 0 0 511.986 511.986" height="512px" viewBox="0 0 511.986 511.986" width="512px"><g><g><path d="m413.867 159.09h-45.257l14.986-35.763c3.486-8.32 11.239-13.925 20.231-14.628 13.466-1.052 25.621-9.189 31.722-21.238l4.754-9.387c8.839-17.449 3.431-38.894-12.578-49.881-4.034-2.769-8.244-5.452-12.515-7.976-3.564-2.105-8.165-.925-10.272 2.642-2.107 3.565-.925 8.165 2.642 10.272 3.979 2.352 7.901 4.851 11.657 7.429 9.837 6.752 13.141 19.965 7.686 30.736l-4.755 9.387c-3.752 7.41-11.227 12.414-19.509 13.061-14.622 1.144-27.228 10.258-32.896 23.786l-17.415 41.56h-48.209l34.443-57.352c7.553-12.575 7.44-28.131-.291-40.595-4.378-7.059-4.767-16.047-1.015-23.456l4.754-9.387c5.456-10.771 18.065-15.925 29.325-11.991 2.817.984 5.874 2.146 9.345 3.554 3.846 1.557 8.213-.297 9.769-4.134 1.556-3.839-.295-8.213-4.134-9.769-3.7-1.499-6.98-2.746-10.031-3.812-18.331-6.405-38.817 1.925-47.654 19.374l-4.754 9.387c-6.103 12.048-5.471 26.662 1.648 38.14 4.755 7.666 4.823 17.232.179 24.966l-39.081 65.074h-24.655c-13.275-42.862-47.978-75.74-91.831-86.492-3.258-.259-12.721-5.65-20.804 2.436-3.788 3.791-5.286 9.161-4.007 14.364 5.318 21.361 5.251 21.952 7.111 28.101-34.297-5.095-58.56 5.274-62.317 6.032-5.128 1.556-8.982 5.584-10.31 10.775-1.327 5.192.121 10.575 3.873 14.4l11.593 11.819c-15.086 4.287-26.345 17.768-27.166 34.179-.933 18.648-1.281 37.604-1.038 56.341.053 4.108 3.4 7.402 7.497 7.402.033 0 .066 0 .1-.001 4.142-.054 7.455-3.454 7.401-7.597-.238-18.423.104-37.062 1.021-55.397.6-11.979 10.47-21.362 22.472-21.362h308.285c12.656 0 20.38 14.081 13.439 24.428-4.951 7.382-11.337 13.01-20.098 17.711-17.23 9.247-27.027 27.743-24.96 47.122 2.448 22.938 1.274 49.354-3.588 80.757-9.35 60.385-61.55 104.867-122.643 104.867h-44.994c-63.23 0-116.192-47.373-123.346-110.005-2.195-19.225-3.774-38.869-4.691-58.388-.194-4.138-3.674-7.305-7.845-7.14-4.137.195-7.334 3.707-7.14 7.845.934 19.85 2.539 39.83 4.773 59.385 5.496 48.13 35.095 88.151 75.933 108.608l-11.846 13.492c-16.803 19.134-3.251 49.214 22.28 49.214h97.659c4.143 0 7.5-3.357 7.5-7.5s-3.357-7.5-7.5-7.5h-97.656c-12.63 0-19.347-14.821-11.009-24.317l15.049-17.14c14.957 5.47 31.079 8.446 47.84 8.446h44.994c15.384 0 30.548-2.557 44.902-7.446l14.171 16.139c8.333 9.49 1.629 24.317-11.009 24.317h-17.297c-4.143 0-7.5 3.357-7.5 7.5s3.357 7.5 7.5 7.5h17.297c25.465 0 39.127-30.03 22.28-49.214l-10.719-12.208c42.513-20.125 70.956-59.7 77.842-104.161 5.063-32.706 6.267-60.394 3.68-84.644-1.418-13.282 5.309-25.966 17.138-32.313 10.852-5.824 19.18-13.207 25.461-22.572 13.829-20.613-1.644-47.782-25.897-47.782zm-247.283-71.924c37.188 9.118 66.921 36.26 79.599 71.924h-52.336c-28.464-29.366-29.6-60.492-33.936-73.272-.148-.593.982.081 6.673 1.348zm-72.223 50.856c.027-.104.053-.112.129-.136 3.556-.656 29.314-11.887 64.192-3.973 4.115 8.943 9.242 17.393 15.309 25.177h-58.74c-4.679-4.179-5.787-5.639-20.841-20.888-.055-.057-.075-.077-.049-.18z" data-original="#000000" class="active-path" data-old_color="#000000" fill="#FFFFFF"/></g></g> </svg>
