<svg id="Layer_1" enable-background="new 0 0 512 512" height="512" viewBox="0 0 512 512" width="512" xmlns="http://www.w3.org/2000/svg"><g><path d="m255.798 287.067h-8.033c-56.997 0-103.367-46.37-103.367-103.367v-8.034c0-8.284 6.716-15 15-15h8.034c56.996 0 103.366 46.37 103.366 103.367v8.034c0 8.284-6.716 15-15 15z" fill="#87e752"/><path d="m263.831 158.533h-8.033c-8.284 0-15-6.716-15-15v-8.033c0-56.997 46.37-103.367 103.366-103.367h8.034c8.284 0 15 6.716 15 15v8.033c0 56.997-46.37 103.367-103.367 103.367z" fill="#4ec95f"/><path d="m245.191 363.006c-5.858-5.858-5.858-15.355 0-21.213l80.333-80.333c5.857-5.858 15.355-5.858 21.213 0s5.858 15.355 0 21.213l-80.333 80.333c-5.858 5.86-15.357 5.857-21.213 0z" fill="#a54628"/><path d="m245.191 459.406-80.333-80.333c-5.858-5.858-5.858-15.355 0-21.213 5.857-5.858 15.355-5.858 21.213 0l80.333 80.333c5.858 5.858 5.858 15.355 0 21.213-5.858 5.859-15.357 5.857-21.213 0z" fill="#a54628"/><path d="m255.798 512c-8.284 0-15-6.716-15-15v-482c0-8.284 6.716-15 15-15s15 6.716 15 15v482c0 8.284-6.716 15-15 15z" fill="#d26432"/><path d="m447.159 183.435-.034-8.034c-.035-8.284-6.779-14.972-15.063-14.937l-8.033.034c-56.997.24-103.171 46.804-102.932 103.8l.068 16.067c.24 56.996 46.804 103.171 103.801 102.931l8.033-.034c8.284-.035 14.972-6.779 14.937-15.063l-.034-8.034c-.157-37.394-20.255-70.13-50.157-88.156 29.749-18.276 49.571-51.179 49.414-88.574z" fill="#4ec95f"/><path d="m87.097 257.067h-8.033c-8.284 0-15 6.716-15 15v8.033c0 37.395 19.96 70.215 49.786 88.367-29.826 18.152-49.786 50.972-49.786 88.367v8.033c0 8.284 6.716 15 15 15h8.033c56.997 0 103.367-46.37 103.367-103.367v-16.067c.001-56.996-46.37-103.366-103.367-103.366z" fill="#87e752"/><path d="m321.129 271.881.036 8.484c.24 56.996 46.804 103.171 103.801 102.931l8.033-.034c8.284-.035 14.972-6.779 14.937-15.063l-.034-8.034c-.157-37.394-20.255-70.13-50.156-88.156.068-.042.135-.087.203-.129h-76.82z" fill="#14aa6b"/><path d="m113.85 368.467c-29.826 18.152-49.786 50.972-49.786 88.367v8.033c0 8.284 6.716 15 15 15h8.033c56.997 0 103.367-46.37 103.367-103.367v-8.033z" fill="#4ec95f"/></g></svg>