<?xml version="1.0"?>
<svg xmlns="http://www.w3.org/2000/svg" height="512px" viewBox="0 0 56 47" width="512px" class=""><g><g id="Page-1" fill="none" fill-rule="evenodd"><g id="018---Boiling-Water" fill="rgb(0,0,0)" fill-rule="nonzero" transform="translate(-1)"><path id="Shape" d="m24 18c-.5522847 0-1-.4477153-1-1 0-.563-.217-.8-.707-1.3-.817898-.6612702-1.2931788-1.6567227-1.2931788-2.7085s.4752808-2.0472298 1.2931788-2.7085c.49-.491.707-.732.707-1.295s-.217-.8-.707-1.291c-.8177149-.66009192-1.2930131-1.65460559-1.2930131-2.7055s.4752982-2.04540808 1.2930131-2.7055c.49-.486.707-.725.707-1.286 0-.55228475.4477153-1 1-1s1 .44771525 1 1c-.0117724 1.04832962-.4847765 2.03823626-1.293 2.706-.49.494-.707.729-.707 1.294s.217.8.707 1.291c.8178063.66068126 1.2930956 1.65566426 1.2930956 2.707 0 1.0513357-.4752893 2.0463187-1.2930956 2.707-.49.491-.707.732-.707 1.3s.217.8.707 1.294c.80635.6670674 1.2790858 1.6545844 1.293 2.701 0 .5522847-.4477153 1-1 1z" data-original="#000000" class="active-path" data-old_color="#000000" fill="#FFFFFF"/><path id="Shape" d="m30 18c-.5522847 0-1-.4477153-1-1 0-.563-.217-.8-.707-1.3-.817898-.6612702-1.2931788-1.6567227-1.2931788-2.7085s.4752808-2.0472298 1.2931788-2.7085c.49-.491.707-.732.707-1.295s-.217-.8-.707-1.291c-.8177149-.66009192-1.2930131-1.65460559-1.2930131-2.7055s.4752982-2.04540808 1.2930131-2.7055c.49-.486.707-.725.707-1.286 0-.55228475.4477153-1 1-1s1 .44771525 1 1c-.0117724 1.04832962-.4847765 2.03823626-1.293 2.706-.49.494-.707.729-.707 1.294s.217.8.707 1.291c.8178063.66068126 1.2930956 1.65566426 1.2930956 2.707 0 1.0513357-.4752893 2.0463187-1.2930956 2.707-.49.491-.707.732-.707 1.3s.217.8.707 1.294c.80635.6670674 1.2790858 1.6545844 1.293 2.701 0 .5522847-.4477153 1-1 1z" data-original="#000000" class="active-path" data-old_color="#000000" fill="#FFFFFF"/><path id="Shape" d="m36 18c-.5522847 0-1-.4477153-1-1 0-.563-.217-.8-.707-1.3-.817898-.6612702-1.2931788-1.6567227-1.2931788-2.7085s.4752808-2.0472298 1.2931788-2.7085c.49-.491.707-.732.707-1.295s-.217-.8-.707-1.291c-.8177149-.66009192-1.2930131-1.65460559-1.2930131-2.7055s.4752982-2.04540808 1.2930131-2.7055c.49-.486.707-.725.707-1.286 0-.55228475.4477153-1 1-1s1 .44771525 1 1c-.0117724 1.04832962-.4847765 2.03823626-1.293 2.706-.49.494-.707.729-.707 1.294s.217.8.707 1.291c.8178063.66068126 1.2930956 1.65566426 1.2930956 2.707 0 1.0513357-.4752893 2.0463187-1.2930956 2.707-.49.491-.707.732-.707 1.3s.217.8.707 1.294c.80635.6670674 1.2790858 1.6545844 1.293 2.701 0 .5522847-.4477153 1-1 1z" data-original="#000000" class="active-path" data-old_color="#000000" fill="#FFFFFF"/><path id="Shape" d="m10.4 34.316c.1747458-.5238384-.1081923-1.0901623-.632-1.265l-4.862-1.619c-1.29580515-.4334487-2.08652938-1.7421252-1.86753706-3.0908398s1.38315962-2.3399732 2.74953706-2.3411602h2.212v-2h-2.212c-2.34861511-.0010694-4.35112493 1.7018676-4.72735846 4.020152-.37623352 2.3182843.98494566 4.5671132 3.21335846 5.308848l4.857 1.619c.52445844.1691527 1.0880042-.11151 1.269-.632z" data-original="#000000" class="active-path" data-old_color="#000000" fill="#FFFFFF"/><path id="Shape" d="m14.84 24.124c3.19 1.124 7.934 1.876 14.16 1.876s10.97-.752 14.16-1.876c-4.5668829-1.4996269-9.3541162-2.2177119-14.16-2.124-4.8058838-.0937119-9.5931171.6243731-14.16 2.124z" data-original="#000000" class="active-path" data-old_color="#000000" fill="#FFFFFF"/><path id="Shape" d="m48 20c0 1.04-.81 2.08-2.37 3-3.9-1.88-10.05-3-16.63-3s-12.73 1.12-16.63 3c-1.56-.92-2.37-1.96-2.37-3 .0241934-.7963548.3793595-1.5465525.98-2.07 1.46-1.45 4.42-2.59 8.27-3.29.3241534.9515568.885082 1.8049941 1.63 2.48l.13.13c.1325331 1.5564047 1.437187 2.7506684 2.9992155 2.7454442 1.5620286-.0052242 2.8586649-1.2081879 2.9807845-2.7654442l.02.02c.1325331 1.5564047 1.437187 2.7506684 2.9992155 2.7454442 1.5620286-.0052242 2.8586649-1.2081879 2.9807845-2.7654442l.02.02c.131336 1.6048865 1.5062536 2.8198506 3.1151045 2.7527033 1.6088509-.0671474 2.8777471-1.3924543 2.8748955-3.0027033.0082656-.7880702-.1627081-1.56771-.5-2.28 5.72 1.05 9.5 3.01 9.5 5.28z" data-original="#000000" class="active-path" data-old_color="#000000" fill="#FFFFFF"/><path id="Shape" d="m45.707 34.949c-.2531131-.7558384-.1950231-1.581334.161448-2.294276.356471-.712942.9820134-1.2547114 1.738552-1.505724l.4-.132v-7.27c-.5598053.4610988-1.1656779.8632266-1.808 1.2-.0461547.0295743-.0946495.0553267-.145.077-3.628 1.883-9.554 2.976-17.054 2.976-9.065 0-15.832-1.592-19-4.253v7.274l.4.132c1.2932136.435375 2.1297019 1.6886336 2.0356739 3.049924s-1.0948822 2.4876388-2.4356739 2.741076v4.056c0 2.981 6.526 6 19 6s19-3.019 19-6v-4.056c-1.0703384-.1983607-1.9484921-.9623889-2.293-1.995zm-23.659 9.662c-.0407707.0001312-.0815119-.0022064-.122-.007-5.792-.7-8.846-2.179-9.7-3.228-.1458939-.1783389-.2257266-.4015879-.226-.632v-1.744c0-.5522847.4477153-1 1-1s1 .4477153 1 1v1.316c.825.617 3.428 1.726 8.168 2.3.5223796.0663978.9037629.5265209.8720985 1.0521505-.0316645.5256296-.4655258.9366416-.9920985.9398495zm3.952.389c-.5522847 0-1-.4477153-1-1s.4477153-1 1-1 1 .4477153 1 1-.4477153 1-1 1z" data-original="#000000" class="active-path" data-old_color="#000000" fill="#FFFFFF"/><path id="Shape" d="m56.494 26.646c-.8066494-1.6257711-2.4671223-2.6518363-4.282-2.646h-2.212v2h2.212c1.0568088-.0035536 2.0236918.5941065 2.493 1.541.3608624.7227318.3906341 1.566423.0816126 2.3127934-.3090214.7463703-.926475 1.3220893-1.6926126 1.5782066l-4.858 1.619c-.5238077.1748377-.8067458.7411616-.632 1.265.1796955.5200842.7423285.8009563 1.266.632l4.856-1.619c1.3169699-.4384771 2.378706-1.4271122 2.9098572-2.7095125.5311513-1.2824002.479391-2.732229-.1418572-3.9734875z" data-original="#000000" class="active-path" data-old_color="#000000" fill="#FFFFFF"/></g></g></g> </svg>
