<?xml version="1.0"?>
<svg xmlns="http://www.w3.org/2000/svg" id="Capa_1" enable-background="new 0 0 512.004 512.004" height="512px" viewBox="0 0 512.004 512.004" width="512px" class=""><g><g><g><g><path d="m253.708 271.848c-15.196 0-28.034 18.919-28.034 41.313s12.838 41.312 28.034 41.312 28.034-18.918 28.034-41.312-12.838-41.313-28.034-41.313z" data-original="#000000" class="active-path" data-old_color="#000000" fill="#FFFFFF"/><path d="m302.94 72.417h-98.463c-8.284 0-15-5.449-15-12.17v-48.077c0-6.721 6.716-12.17 15-12.17h98.463c8.284 0 15 5.449 15 12.17v48.076c0 6.722-6.716 12.171-15 12.171z" data-original="#000000" class="active-path" data-old_color="#000000" fill="#FFFFFF"/></g><g><path d="m383.352 120.093c-1.057-14.968-7.878-28.628-19.209-38.465-9.975-8.66-22.394-13.44-35.435-13.739v30.024c5.801.297 11.31 2.5 15.768 6.369 5.279 4.584 8.458 10.949 8.95 17.924.552 7.817-2.411 15.164-7.615 20.373 8.154 6.02 15.605 12.746 22.307 20.055 10.471-11.096 16.377-26.344 15.234-42.541z" data-original="#000000" class="active-path" data-old_color="#000000" fill="#FFFFFF"/></g></g><g><path d="m131.267 298.16h65.695c2.18-12.661 7.098-24.375 14.398-33.927 10.872-14.227 26.308-22.386 42.349-22.386s31.477 8.159 42.349 22.386c7.3 9.552 12.217 21.266 14.398 33.927h65.695l1.892-16.068c5.393-45.795-14.755-90.712-52.579-117.222-16.752-11.742-26.754-31.102-26.754-51.787v-10.666h-90v10.666c0 20.686-10.002 40.045-26.754 51.787-37.824 26.51-57.972 71.427-52.579 117.222z" data-original="#000000" class="active-path" data-old_color="#000000" fill="#FFFFFF"/><path d="m310.454 328.16c-2.18 12.661-7.098 24.374-14.398 33.926-10.872 14.227-26.308 22.386-42.349 22.386s-31.477-8.159-42.349-22.386c-7.3-9.552-12.217-21.265-14.398-33.926h-62.162l20.087 170.598c.89 7.554 7.292 13.246 14.898 13.246h167.848c7.605 0 14.008-5.692 14.897-13.246l20.087-170.598z" data-original="#000000" class="active-path" data-old_color="#000000" fill="#FFFFFF"/></g></g></g> </svg>
