<svg id="Capa_1" enable-background="new 0 0 512.079 512.079" height="512" viewBox="0 0 512.079 512.079" width="512" xmlns="http://www.w3.org/2000/svg"><path d="m437.429 406.98h-343.745c-8.284 0-15.024-6.74-15.024-15.024s6.74-15.024 15.024-15.024h.576 384.481l33.338-301.832h-420.974l-6.633-60.048h-84.472v30h57.604l3.705 33.538 29.648 268.432c-23.56 1.416-42.297 21.024-42.297 44.934 0 24.644 19.906 44.717 44.481 45.01-1.673 4.706-2.592 9.765-2.592 15.038 0 24.826 20.197 45.024 45.023 45.024s45.024-20.198 45.024-45.024c0-5.267-.917-10.322-2.587-15.024h216.982c-1.67 4.702-2.587 9.757-2.587 15.024 0 24.826 20.198 45.024 45.024 45.024s45.024-20.198 45.024-45.024-20.197-45.024-45.023-45.024zm-38.989-150.659h-33.439l2.231-60.611h35.671zm34.545-60.611h35.589l-6.695 60.611h-33.358zm-193.86 90.611h32.376v60.61h-30.144zm-27.789 60.61h-30.102l-4.463-60.61h32.334zm60.165-90.61h-33.48l-2.231-60.611h35.712v60.611zm30-60.611h35.711l-2.231 60.611h-33.479v-60.611zm0 90.611h32.375l-2.231 60.61h-30.143v-60.61zm62.396 0h32.335l-4.463 60.61h-30.103zm4.44-120.611 2.231-60.611h39.007l-4.463 60.611zm-30.021 0h-36.815v-60.611h39.047zm-66.815 0h-36.816l-2.231-60.611h39.048v60.611zm-66.837 0h-36.775l-4.463-60.611h39.006zm1.104 30 2.232 60.611h-33.438l-4.463-60.611zm-61.289 60.611h-33.358l-6.694-60.611h35.589zm-30.044 30h32.254l4.463 60.61h-30.022zm307.416 60.61 4.463-60.61h32.253l-6.695 60.61zm50.037-181.221h-36.694l4.463-60.611h38.926zm-338.544-60.611 4.463 60.611h-36.694l-6.694-60.611zm17.253 346.905c0 8.284-6.74 15.024-15.024 15.024s-15.023-6.74-15.023-15.024 6.739-15.024 15.023-15.024 15.024 6.739 15.024 15.024zm286.832 15.024c-8.284 0-15.024-6.74-15.024-15.024s6.74-15.024 15.024-15.024 15.024 6.74 15.024 15.024-6.74 15.024-15.024 15.024z"/></svg>